<svg width="843" height="285" fill="none" xmlns="http://www.w3.org/2000/svg"><path d="M158.46 19.4c9.22 0 18.46-.22 27.67.03 3.5.09 7 .37 10.46.83l-2.56-.34a80.29 80.29 0 0 1 20.22 5.38l-2.3-.97a64.06 64.06 0 0 1 14.16 8.17l-1.95-1.5c3.73 2.88 7.1 6.2 9.99 9.93l-1.5-1.95a50.89 50.89 0 0 1 6.52 11.15l-.97-2.3a48.08 48.08 0 0 1 3.33 12.14l-.35-2.55a46.3 46.3 0 0 1 0 12.22l.35-2.55a45.68 45.68 0 0 1-3.13 11.45l.97-2.3a47 47 0 0 1-6.04 10.34l1.5-1.95a51.32 51.32 0 0 1-9.16 9.13l1.95-1.5a61.03 61.03 0 0 1-13.5 7.79l2.3-.97a81.25 81.25 0 0 1-20.62 5.44l2.56-.35c-5.73.76-11.47.92-17.24.92h-22.66a9.7 9.7 0 0 0-9.6 9.61 9.7 9.7 0 0 0 9.6 9.61c8.92 0 17.83.08 26.75 0 15.8-.14 32.01-3.27 45.82-11.25 10.6-6.12 19.94-15.5 24.82-26.84 1.3-3.02 2.5-6.03 3.3-9.23a61.46 61.46 0 0 0 1.51-9.7c.48-5.7-.15-11.56-1.47-17.11-2.78-11.65-9.6-22.48-18.53-30.38-10.73-9.48-24.17-15.46-38.23-17.91A117.29 117.29 0 0 0 182.3.17H158.46a9.7 9.7 0 0 0-9.6 9.61 9.7 9.7 0 0 0 9.6 9.61ZM100.48 105.32a94.88 94.88 0 0 0-52.41 16 106.46 106.46 0 0 0-36.26 41.78A118.05 118.05 0 0 0 .02 214.39a9.7 9.7 0 0 0 9.62 9.6 9.7 9.7 0 0 0 9.6-9.6c.01-4.94.34-9.86 1-14.75l-.35 2.55c1.28-9.3 3.75-18.42 7.4-27.08l-.97 2.3c3.4-7.98 7.77-15.53 13.07-22.4l-1.5 1.95A95.93 95.93 0 0 1 55 139.8l-1.95 1.5c6.01-4.62 12.57-8.49 19.55-11.44l-2.3.96a85.1 85.1 0 0 1 21.55-5.89l-2.56.34c3.71-.49 7.44-.74 11.19-.74a9.7 9.7 0 0 0 9.6-9.61 9.7 9.7 0 0 0-9.6-9.61ZM119.74 9.78v204.6a9.7 9.7 0 0 0 9.61 9.62 9.7 9.7 0 0 0 9.61-9.61V9.78a9.7 9.7 0 0 0-9.6-9.61 9.7 9.7 0 0 0-9.62 9.61Z" fill="#fff"/><path d="M0 9.78c.02 20.24 4.76 40.3 14.03 58.3a108.75 108.75 0 0 0 36.81 41.08A91.53 91.53 0 0 0 100.45 124a9.7 9.7 0 0 0 9.61-9.61 9.7 9.7 0 0 0-9.6-9.61c-3.57 0-7.12-.24-10.64-.71l2.55.34a81.7 81.7 0 0 1-20.57-5.61l2.3.96a87.68 87.68 0 0 1-19.46-11.41l1.95 1.5A97.52 97.52 0 0 1 39.4 72.6l1.5 1.95A107.96 107.96 0 0 1 26.99 50.6l.97 2.3a116.68 116.68 0 0 1-7.99-29.43l.35 2.56a123.56 123.56 0 0 1-1.09-16.25 9.7 9.7 0 0 0-9.6-9.6A9.7 9.7 0 0 0 0 9.77ZM263 214.39c-.03-19.55-5.11-39-14.82-55.98a107.83 107.83 0 0 0-38.84-39.33 101.57 101.57 0 0 0-50.88-13.79 9.7 9.7 0 0 0-9.6 9.61 9.7 9.7 0 0 0 9.6 9.61c4.1 0 8.2.28 12.26.83l-2.55-.35c7.99 1.1 15.8 3.25 23.23 6.38l-2.3-.97a94.72 94.72 0 0 1 20.72 12.13l-1.95-1.5a98.8 98.8 0 0 1 17.57 17.59l-1.5-1.95c5.32 6.9 9.72 14.48 13.12 22.5l-.97-2.3a103.5 103.5 0 0 1 7.1 26.17l-.33-2.55c.6 4.6.91 9.25.92 13.9a9.7 9.7 0 0 0 9.6 9.61 9.7 9.7 0 0 0 9.62-9.61Z" fill="#F15A29"/><g clip-path="url(#a)"><path d="M380.5 1.5c27.71 0 49.45 6.62 65.2 19.84 15.75 13.03 23.63 31.19 23.63 54.5 0 23.1-7.88 41.27-23.63 54.5-15.75 13.01-37.49 19.53-65.2 19.53h-63V222h-16.07V1.5h79.06Zm0 133.88c23.51 0 41.47-5.15 53.86-15.44s18.58-24.99 18.58-44.1c0-19.11-6.19-33.81-18.58-44.1-12.39-10.5-30.35-15.75-53.87-15.75h-63v119.39h63Zm267.48-77.81V222h-15.44v-38.75c-6.5 12.81-15.64 22.69-27.4 29.62-11.76 6.92-25.1 10.39-40 10.39-15.34 0-29.2-3.57-41.59-10.71a77.8 77.8 0 0 1-29.3-29.61c-6.92-12.6-10.39-26.98-10.39-43.16 0-16.17 3.47-30.55 10.4-43.15 7.14-12.81 16.9-22.68 29.3-29.61 12.38-7.14 26.24-10.71 41.57-10.71 14.7 0 27.83 3.46 39.38 10.4 11.76 6.93 21 16.59 27.72 28.98V57.57h15.75Zm-81.9 151.52c12.6 0 23.83-2.94 33.7-8.83a61.89 61.89 0 0 0 23.63-24.56c5.88-10.5 8.82-22.47 8.82-35.91 0-13.44-2.94-25.41-8.82-35.91a61.89 61.89 0 0 0-23.63-24.57c-9.87-5.89-21.1-8.83-33.7-8.83-12.6 0-23.94 2.94-34.02 8.83-9.87 5.88-17.75 14.06-23.63 24.56-5.67 10.5-8.5 22.47-8.5 35.91 0 13.44 2.83 25.41 8.5 35.91 5.88 10.5 13.76 18.7 23.63 24.57 10.08 5.89 21.42 8.83 34.02 8.83Zm276.5-151.52v146.79c0 27.3-6.09 47.46-18.26 60.48-12.19 13.02-30.56 19.53-55.13 19.53-14.07 0-27.3-2.31-39.69-6.93-12.39-4.62-22.37-11.02-29.92-19.21l8.5-11.98c7.35 7.56 16.27 13.44 26.77 17.64a89.9 89.9 0 0 0 33.71 6.3c19.95 0 34.65-5.25 44.1-15.75 9.45-10.28 14.18-26.35 14.18-48.19v-25.2a63.25 63.25 0 0 1-24.58 25.83c-10.5 6.09-22.78 9.13-36.85 9.13-21.42 0-38.22-5.98-50.4-17.95-12.18-11.97-18.27-29.19-18.27-51.66V57.57h15.75v87.57c0 18.48 4.73 32.55 14.17 42.21 9.46 9.66 22.79 14.49 40.01 14.49 18.48 0 33.08-5.78 43.79-17.33 10.91-11.54 16.38-27.08 16.38-46.61V57.57h15.75Z" fill="#fff"/><mask id="b" style="mask-type:luminance" maskUnits="userSpaceOnUse" x="300" y="0" width="544" height="286"><path d="M844 0H300v286h544V0Z" fill="#fff"/><path d="M380.5 1.5c27.71 0 49.45 6.62 65.2 19.84 15.75 13.03 23.63 31.19 23.63 54.5 0 23.1-7.88 41.27-23.63 54.5-15.75 13.01-37.49 19.53-65.2 19.53h-63V222h-16.07V1.5h79.06Zm0 133.88c23.51 0 41.47-5.15 53.86-15.44s18.58-24.99 18.58-44.1c0-19.11-6.19-33.81-18.58-44.1-12.39-10.5-30.35-15.75-53.87-15.75h-63v119.39h63Zm267.48-77.81V222h-15.44v-38.75c-6.5 12.81-15.64 22.69-27.4 29.62-11.76 6.92-25.1 10.39-40 10.39-15.34 0-29.2-3.57-41.59-10.71a77.8 77.8 0 0 1-29.3-29.61c-6.92-12.6-10.39-26.98-10.39-43.16 0-16.17 3.47-30.55 10.4-43.15 7.14-12.81 16.9-22.68 29.3-29.61 12.38-7.14 26.24-10.71 41.57-10.71 14.7 0 27.83 3.46 39.38 10.4 11.76 6.93 21 16.59 27.72 28.98V57.57h15.75Zm-81.9 151.52c12.6 0 23.83-2.94 33.7-8.83a61.89 61.89 0 0 0 23.63-24.56c5.88-10.5 8.82-22.47 8.82-35.91 0-13.44-2.94-25.41-8.82-35.91a61.89 61.89 0 0 0-23.63-24.57c-9.87-5.89-21.1-8.83-33.7-8.83-12.6 0-23.94 2.94-34.02 8.83-9.87 5.88-17.75 14.06-23.63 24.56-5.67 10.5-8.5 22.47-8.5 35.91 0 13.44 2.83 25.41 8.5 35.91 5.88 10.5 13.76 18.7 23.63 24.57 10.08 5.89 21.42 8.83 34.02 8.83Zm276.5-151.52v146.79c0 27.3-6.09 47.46-18.26 60.48-12.19 13.02-30.56 19.53-55.13 19.53-14.07 0-27.3-2.31-39.69-6.93-12.39-4.62-22.37-11.02-29.92-19.21l8.5-11.98c7.35 7.56 16.27 13.44 26.77 17.64a89.9 89.9 0 0 0 33.71 6.3c19.95 0 34.65-5.25 44.1-15.75 9.45-10.28 14.18-26.35 14.18-48.19v-25.2a63.25 63.25 0 0 1-24.58 25.83c-10.5 6.09-22.78 9.13-36.85 9.13-21.42 0-38.22-5.98-50.4-17.95-12.18-11.97-18.27-29.19-18.27-51.66V57.57h15.75v87.57c0 18.48 4.73 32.55 14.17 42.21 9.46 9.66 22.79 14.49 40.01 14.49 18.48 0 33.08-5.78 43.79-17.33 10.91-11.54 16.38-27.08 16.38-46.61V57.57h15.75Z" fill="#000"/></mask><g mask="url(#b)"><path d="m445.7 21.34-.64.77.64-.77Zm0 109 .64.77-.64-.78Zm-128.2 19.53v-1h-1v1h1Zm0 72.13v1h1v-1h-1Zm-16.07 0h-1v1h1v-1Zm0-220.5v-1h-1v1h1Zm132.93 30.24-.65.76h.01l.64-.76ZM317.49 15.99v-1h-1v1h1Zm0 119.39h-1v1h1v-1Zm63-132.88c27.57 0 49.05 6.58 64.57 19.61l1.28-1.53C430.36 7.15 408.37.5 380.5.5v2Zm64.57 19.62c15.49 12.8 23.26 30.66 23.26 53.72h2c0-23.56-7.97-42.03-23.98-55.27l-1.28 1.55Zm23.26 53.72c0 22.85-7.77 40.71-23.26 53.73l1.28 1.53c16-13.44 23.99-31.9 23.99-55.26h-2Zm-23.26 53.72c-15.51 12.83-37 19.3-64.56 19.3v2c27.87 0 49.85-6.54 65.84-19.75l-1.28-1.55Zm-64.56 19.3h-63v2h63v-2Zm-64 1V222h2v-72.13h-2Zm1 71.14h-16.07v2h16.06v-2Zm-15.07 1V1.5h-2V222h2Zm-1-219.5h79.06v-2h-79.06v2Zm79.06 133.88c23.65 0 41.87-5.18 54.5-15.67l-1.27-1.54c-12.14 10.09-29.83 15.2-53.23 15.2v2ZM435 120.7c12.67-10.52 18.95-25.52 18.95-44.87h-2c0 18.87-6.1 33.27-18.22 43.33l1.28 1.54Zm18.95-44.87c0-19.35-6.28-34.35-18.94-44.87l-1.28 1.54c12.12 10.06 18.22 24.46 18.22 43.33h2Zm-18.93-44.86c-12.64-10.71-30.86-15.99-54.51-15.99v2c23.38 0 41.07 5.22 53.21 15.51l1.3-1.52ZM380.5 14.99h-63v2h63v-2Zm-64 1v119.39h2V15.98h-2Zm1 120.39h63v-2h-63v2Zm330.48-78.81h1v-1h-1v1Zm0 164.43v1h1v-1h-1Zm-15.44 0h-1v1h1v-1Zm0-38.75h1l-1.89-.45.9.45Zm-138.28-.31-.88.48v.01l.88-.49Zm0-86.31-.88-.49.88.49Zm29.3-29.61.48.87h.01l-.5-.87Zm80.95-.31-.52.85.52-.86Zm27.72 28.98-.88.47 1.88-.47h-1Zm0-38.12v-1h-1v1h1Zm-32.45 142.7-.5-.87h-.01l.51.86Zm23.63-24.58-.88-.48v.01l.88.47Zm0-71.81-.88.47v.01l.88-.48ZM599.78 79.3l-.51.85.51-.85Zm-67.72 0-.5-.87h-.01l.5.87Zm-23.63 24.56-.87-.48v.01l.87.47Zm0 71.82-.88.48v.01l.88-.49Zm23.63 24.57-.51.86.5-.86ZM646.98 57.57V222h2V57.57h-2Zm1 163.43h-15.44v2h15.44v-2Zm-14.44 1v-38.75h-2V222h2Zm-1.89-39.2c-6.43 12.65-15.43 22.38-27.02 29.2l1.01 1.73c11.94-7.03 21.2-17.05 27.8-30.02l-1.79-.9ZM604.63 212c-11.6 6.84-24.75 10.26-39.5 10.26v2c15.07 0 28.59-3.5 40.51-10.53l-1.01-1.73Zm-39.5 10.26c-15.17 0-28.85-3.53-41.08-10.58l-1 1.74c12.56 7.23 26.59 10.84 42.08 10.84v-2Zm-41.08-10.58a76.8 76.8 0 0 1-28.92-29.23l-1.74.98a78.8 78.8 0 0 0 29.66 29.99l1-1.74Zm-28.92-29.22c-6.84-12.44-10.27-26.65-10.27-42.68h-2c0 16.32 3.5 30.88 10.52 43.64l1.75-.96Zm-10.27-42.68c0-16.02 3.43-30.23 10.27-42.67l-1.75-.96c-7.02 12.76-10.52 27.32-10.52 43.63h2Zm10.27-42.66c7.05-12.66 16.69-22.4 28.91-29.23l-.98-1.74c-12.55 7.02-22.45 17.03-29.68 30l1.75.97Zm28.92-29.23c12.23-7.05 25.91-10.58 41.08-10.58v-2c-15.49 0-29.52 3.61-42.08 10.84l1 1.74Zm41.08-10.58c14.54 0 27.48 3.42 38.86 10.25l1.03-1.71C593.3 58.82 580 55.3 565.13 55.3v2ZM604 67.57c11.6 6.83 20.71 16.36 27.35 28.6l1.76-.96c-6.8-12.55-16.17-22.34-28.1-29.37L604 67.57Zm29.23 28.12V57.57h-2v38.12h2Zm-1-37.12h15.75v-2h-15.75v2Zm-66.15 151.52c12.76 0 24.17-2.99 34.21-8.97l-1.02-1.71c-9.7 5.78-20.75 8.68-33.2 8.68v2Zm34.2-8.96a62.9 62.9 0 0 0 24-24.96l-1.75-.95a60.88 60.88 0 0 1-23.25 24.18l1 1.73Zm24-24.95c5.97-10.66 8.95-22.8 8.95-36.4h-2c0 13.3-2.9 25.1-8.7 35.43l1.75.97Zm8.95-36.4c0-13.59-2.98-25.73-8.95-36.4l-1.75.98c5.8 10.34 8.7 22.14 8.7 35.42h2Zm-8.94-36.38a62.9 62.9 0 0 0-24-24.96l-1.01 1.73a60.89 60.89 0 0 1 23.25 24.18l1.76-.95Zm-24-24.95c-10.04-5.99-21.45-8.97-34.21-8.97v2c12.43 0 23.49 2.9 33.19 8.68l1.02-1.71Zm-34.21-8.97c-12.77 0-24.28 2.98-34.53 8.96l1.01 1.73c9.92-5.78 21.08-8.69 33.52-8.69v-2Zm-34.54 8.97c-10.02 5.97-18.02 14.3-23.98 24.94l1.74.97c5.8-10.35 13.56-18.41 23.27-24.2l-1.03-1.71Zm-23.99 24.95c-5.76 10.66-8.62 22.8-8.62 36.38h2c0-13.29 2.8-25.1 8.38-35.43l-1.76-.95Zm-8.62 36.38c0 13.59 2.86 25.73 8.62 36.39l1.76-.95c-5.58-10.34-8.38-22.14-8.38-35.44h-2Zm8.63 36.4c5.96 10.65 13.96 18.97 23.98 24.94l1.03-1.71c-9.71-5.79-17.47-13.85-23.27-24.2l-1.74.97Zm24 24.95c10.24 5.97 21.75 8.96 34.52 8.96v-2c-12.44 0-23.6-2.9-33.52-8.69l-1 1.73ZM842.58 57.57h1v-1h-1v1ZM699.58 258.23l-.82-.58-.47.66.55.6.74-.69Zm8.5-11.98.72-.7-.84-.85-.7.98.82.57Zm104.58 8.2-.74-.68.74.67Zm14.18-73.4h1l-1.9-.46.9.46Zm-24.58 25.83.5.87h.01l-.5-.87ZM696.75 57.57v-1h-1v1h1Zm15.75 0h1v-1h-1v1Zm97.97 126.94-.73-.68.73.68Zm16.38-126.94v-1h-1v1h1Zm14.75 0v146.79h2V57.57h-2Zm0 146.79c0 27.18-6.07 47.04-18 59.8l1.46 1.36c12.42-13.28 18.54-33.74 18.54-61.16h-2Zm-18 59.8c-11.93 12.75-30 19.21-54.4 19.21v2c24.74 0 43.42-6.56 55.86-19.85l-1.46-1.36Zm-54.4 19.21c-13.96 0-27.07-2.3-39.34-6.87l-.7 1.88c12.51 4.66 25.86 6.99 40.04 6.99v-2Zm-39.34-6.87c-12.27-4.57-22.1-10.9-29.54-18.95l-1.47 1.35c7.68 8.33 17.8 14.81 30.31 19.48l.7-1.88Zm-29.46-17.7 8.5-11.97-1.63-1.15-8.5 11.97 1.63 1.15Zm6.97-11.85c7.46 7.67 16.5 13.63 27.12 17.87l.75-1.85c-10.38-4.16-19.19-9.96-26.43-17.41l-1.44 1.4Zm27.12 17.87a90.9 90.9 0 0 0 34.08 6.38v-2a88.9 88.9 0 0 1-33.33-6.23l-.75 1.85Zm34.08 6.38c20.11 0 35.14-5.3 44.84-16.09l-1.48-1.33c-9.2 10.21-23.57 15.41-43.36 15.41v2Zm44.84-16.08c9.69-10.55 14.44-26.91 14.44-48.87h-2c0 21.72-4.7 37.5-13.92 47.52l1.48 1.35Zm14.44-48.87v-25.2h-2v25.2h2Zm-1.9-25.66a62.25 62.25 0 0 1-24.18 25.43l1.01 1.72a64.25 64.25 0 0 0 24.95-26.23l-1.77-.92ZM801.77 206c-10.32 6-22.43 9-36.35 9v2c14.22 0 26.68-3.07 37.36-9.26l-1-1.74Zm-36.35 9c-21.23 0-37.75-5.92-49.7-17.66l-1.4 1.42c12.41 12.2 29.49 18.24 51.1 18.24v-2Zm-49.7-17.66c-11.93-11.73-17.97-28.66-17.97-50.95h-2c0 22.65 6.14 40.16 18.57 52.37l1.4-1.42Zm-17.97-50.95V57.57h-2v88.83h2Zm-1-87.83h15.75v-2h-15.75v2Zm14.75-1v87.57h2V57.57h-2Zm0 87.57c0 18.64 4.77 33 14.46 42.9l1.43-1.39c-9.2-9.41-13.89-23.2-13.89-41.51h-2Zm14.46 42.9c9.69 9.91 23.3 14.8 40.72 14.8v-2c-17.03 0-30.08-4.77-39.29-14.19l-1.43 1.4Zm40.72 14.8c18.7 0 33.59-5.85 44.52-17.65l-1.47-1.35c-10.49 11.3-24.8 17-43.05 17v2Zm44.51-17.64c11.14-11.77 16.66-27.58 16.66-47.3h-2c0 19.33-5.4 34.6-16.11 45.93l1.45 1.37Zm16.66-47.3V57.57h-2v80.33h2Zm-1-79.33h15.75v-2h-15.75v2Z" fill="#fff"/></g></g><defs><clipPath id="a"><path fill="#fff" transform="translate(301 1)" d="M0 0h542v284H0z"/></clipPath></defs></svg>